<?xml version="1.0" standalone="no"?>
<!DOCTYPE svg PUBLIC "-//W3C//DTD SVG 20010904//EN"
 "http://www.w3.org/TR/2001/REC-SVG-20010904/DTD/svg10.dtd">
<svg version="1.0" xmlns="http://www.w3.org/2000/svg"
 width="233.000000pt" height="216.000000pt" viewBox="0 0 233.000000 216.000000"
 preserveAspectRatio="xMidYMid meet">

<g transform="translate(0.000000,216.000000) scale(0.100000,-0.100000)"
fill="#000000" stroke="none">
<path d="M145 2036 c-17 -7 -43 -28 -58 -46 l-27 -32 2 -685 3 -685 37 -34 38
-34 165 0 165 0 0 -184 c0 -170 1 -185 21 -210 42 -53 56 -44 289 183 l215
210 598 0 597 1 38 34 37 34 3 686 2 685 -31 35 c-17 20 -47 40 -67 46 -24 6
-381 10 -1017 10 -792 -1 -986 -3 -1010 -14z m1993 -753 l-3 -628 -605 -3
-605 -2 -157 -157 -158 -158 0 158 0 157 -210 0 -210 0 0 630 0 630 975 0 975
0 -2 -627z"/>
<path d="M511 1617 c-37 -19 -48 -63 -24 -96 l20 -26 658 0 658 0 20 27 c26
34 15 76 -23 95 -36 18 -1274 18 -1309 0z"/>
<path d="M495 1325 c-14 -13 -25 -33 -25 -45 0 -11 11 -32 25 -45 l24 -25 646
0 646 0 24 25 c32 31 32 59 0 90 l-24 25 -646 0 -646 0 -24 -25z"/>
<path d="M495 1045 c-14 -13 -25 -33 -25 -45 0 -11 11 -32 25 -45 l24 -25 434
0 c424 0 435 0 461 21 32 25 35 70 6 99 -19 19 -33 20 -460 20 l-441 0 -24
-25z"/>
</g>
</svg>
