<?xml version="1.0" standalone="no"?>
<!DOCTYPE svg PUBLIC "-//W3C//DTD SVG 20010904//EN"
 "http://www.w3.org/TR/2001/REC-SVG-20010904/DTD/svg10.dtd">
<svg version="1.0" xmlns="http://www.w3.org/2000/svg"
 width="840.000000pt" height="421.000000pt" viewBox="0 0 840.000000 421.000000"
 preserveAspectRatio="xMidYMid meet">

<g transform="translate(0.000000,421.000000) scale(0.100000,-0.100000)"
fill="#000000" stroke="none">
<path d="M3270 3785 c-8 -2 -49 -9 -90 -15 -140 -23 -319 -102 -439 -195 -88
-67 -210 -203 -265 -294 -59 -97 -108 -226 -131 -340 -24 -117 -17 -362 14
-476 30 -110 108 -267 180 -361 33 -44 420 -441 861 -884 l800 -805 800 805
c441 443 828 841 862 885 310 405 276 987 -80 1357 -415 431 -1079 436 -1499
12 l-83 -84 -83 84 c-192 196 -434 302 -707 311 -69 2 -132 2 -140 0z m318
-175 c157 -38 299 -118 415 -234 65 -65 139 -168 173 -238 10 -21 20 -38 23
-38 3 1 28 38 54 84 149 255 385 412 675 447 225 27 463 -38 643 -177 323
-248 441 -690 283 -1066 -66 -157 -91 -186 -891 -994 -416 -420 -759 -764
-762 -764 -14 0 -1503 1513 -1546 1570 -116 156 -175 337 -175 535 0 196 46
347 151 504 139 208 368 354 614 391 87 13 247 4 343 -20z"/>
</g>
</svg>
