<?xml version="1.0" standalone="no"?>
<!DOCTYPE svg PUBLIC "-//W3C//DTD SVG 20010904//EN"
 "http://www.w3.org/TR/2001/REC-SVG-20010904/DTD/svg10.dtd">
<svg version="1.0" xmlns="http://www.w3.org/2000/svg"
 width="200.000000pt" height="252.000000pt" viewBox="0 0 200.000000 252.000000"
 preserveAspectRatio="xMidYMid meet">

<g transform="translate(0.000000,252.000000) scale(0.100000,-0.100000)"
fill="#000000" stroke="none">
<path d="M1455 2397 c-60 -28 -108 -74 -138 -131 -28 -53 -31 -194 -5 -241
l16 -31 -350 -267 c-336 -256 -352 -267 -372 -252 -116 86 -276 77 -378 -22
-53 -52 -82 -124 -82 -203 1 -225 252 -356 440 -230 l40 27 335 -254 c184
-140 340 -260 347 -267 10 -10 10 -19 -3 -49 -50 -120 14 -280 139 -345 67
-35 177 -38 246 -6 100 47 164 145 164 254 1 227 -245 362 -438 240 l-46 -30
-338 257 c-185 140 -340 259 -345 263 -4 3 -1 26 8 49 19 54 19 133 0 186 -11
32 -12 42 -2 52 7 7 165 129 351 271 l339 259 35 -23 c80 -54 188 -59 280 -13
103 51 156 135 156 249 0 106 -51 194 -142 247 -36 22 -61 27 -126 30 -70 4
-88 1 -131 -20z m204 -83 c208 -104 90 -419 -137 -362 -62 15 -125 78 -140
140 -24 95 32 200 124 233 58 21 94 18 153 -11z m-1161 -880 c80 -33 123 -97
123 -181 0 -70 -38 -137 -96 -170 -47 -26 -127 -31 -178 -9 -41 17 -91 74
-107 121 -50 152 111 301 258 239z m1150 -869 c100 -42 148 -155 107 -253 -63
-149 -264 -166 -349 -29 -79 129 12 295 162 297 23 0 59 -7 80 -15z"/>
</g>
</svg>
